<?xml version="1.0" encoding="UTF-8" standalone="no"?>
<svg width="10px" height="10px" viewBox="0 0 10 10" version="1.1" xmlns="http://www.w3.org/2000/svg" xmlns:xlink="http://www.w3.org/1999/xlink">
    <!-- Generator: Sketch 50.2 (55047) - http://www.bohemiancoding.com/sketch -->
    <title>invalid</title>
    <desc>Created with Sketch.</desc>
    <defs></defs>
    <g id="Incubator-dashboard_support-Copy" stroke="none" stroke-width="1" fill="none" fill-rule="evenodd">
        <g id="SCHEME-2" transform="translate(-346.000000, -511.000000)" fill="#D0021B">
            <g id="1" transform="translate(346.000000, 239.000000)">
                <g id="error-message" transform="translate(0.000000, 271.000000)">
                    <path d="M4.40529745,1.43626104 L0.137064449,9.9433513 C-0.189818823,10.524616 0.0883132151,11.000253 0.75520509,11.000253 L9.24479491,11.000253 C9.91168678,11.000253 10.1898188,10.524616 9.86293555,9.9433513 L5.59470255,1.43626104 C5.4309484,1.14562868 5.21594296,1 5.00031251,1 C4.78405704,1 4.56842658,1.14562868 4.40529745,1.43626104 Z M8.76182416,9.79821871 L1.2694685,9.79821871 L5.00057838,2.53128875 L8.76182416,9.79821871 Z M5.62470331,8.50018978 C5.62470331,8.84519851 5.34469622,9.1252056 4.99968749,9.1252056 C4.65467876,9.1252056 4.37467168,8.84519851 4.37467168,8.50018978 C4.37467168,8.15518105 4.65467876,7.87517397 4.99968749,7.87517397 C5.34469622,7.87517397 5.62470331,8.15518105 5.62470331,8.50018978 M4.99968749,7.25015815 C4.65467876,7.25015815 4.37467168,6.97015107 4.37467168,6.62514234 L4.37467168,4.75009489 C4.37467168,4.40508616 4.65467876,4.12507908 4.99968749,4.12507908 C5.34469622,4.12507908 5.62470331,4.40508616 5.62470331,4.75009489 L5.62470331,6.62514234 C5.62470331,6.97015107 5.34469622,7.25015815 4.99968749,7.25015815" id="invalid"></path>
                </g>
            </g>
        </g>
    </g>
</svg>